<mxfile host="app.diagrams.net" modified="2022-07-22T06:58:32.371Z" agent="5.0 (Windows NT 10.0; Win64; x64) AppleWebKit/537.36 (KHTML, like Gecko) Chrome/86.0.4240.198 Safari/537.36" etag="ZGDCKOMYikiXN9dWlzcN" version="20.1.4" type="github">
  <diagram id="6dp3PqyZJJWyxQWhC43P" name="第 1 页">
    <mxGraphModel dx="1422" dy="786" grid="1" gridSize="10" guides="1" tooltips="1" connect="1" arrows="1" fold="1" page="1" pageScale="1" pageWidth="827" pageHeight="1169" math="0" shadow="0">
      <root>
        <mxCell id="0" />
        <mxCell id="1" parent="0" />
        <mxCell id="rUeERLIHMF86jaovQh1C-3" value="" style="edgeStyle=orthogonalEdgeStyle;rounded=0;orthogonalLoop=1;jettySize=auto;html=1;" edge="1" parent="1" source="rUeERLIHMF86jaovQh1C-1" target="rUeERLIHMF86jaovQh1C-2">
          <mxGeometry relative="1" as="geometry" />
        </mxCell>
        <mxCell id="rUeERLIHMF86jaovQh1C-1" value="导入数据" style="rounded=0;whiteSpace=wrap;html=1;" vertex="1" parent="1">
          <mxGeometry x="20" y="350" width="120" height="60" as="geometry" />
        </mxCell>
        <mxCell id="rUeERLIHMF86jaovQh1C-5" value="" style="edgeStyle=orthogonalEdgeStyle;rounded=0;orthogonalLoop=1;jettySize=auto;html=1;" edge="1" parent="1" source="rUeERLIHMF86jaovQh1C-2" target="rUeERLIHMF86jaovQh1C-4">
          <mxGeometry relative="1" as="geometry" />
        </mxCell>
        <mxCell id="rUeERLIHMF86jaovQh1C-2" value="带有数据，和字段名" style="shape=singleArrow;whiteSpace=wrap;html=1;arrowWidth=0.4;arrowSize=0.4;rounded=0;" vertex="1" parent="1">
          <mxGeometry x="170" y="350" width="80" height="60" as="geometry" />
        </mxCell>
        <mxCell id="rUeERLIHMF86jaovQh1C-8" value="" style="edgeStyle=orthogonalEdgeStyle;rounded=0;orthogonalLoop=1;jettySize=auto;html=1;" edge="1" parent="1" source="rUeERLIHMF86jaovQh1C-4" target="rUeERLIHMF86jaovQh1C-7">
          <mxGeometry relative="1" as="geometry" />
        </mxCell>
        <mxCell id="rUeERLIHMF86jaovQh1C-4" value="从数据库获取项目表头" style="whiteSpace=wrap;html=1;rounded=0;" vertex="1" parent="1">
          <mxGeometry x="300" y="350" width="120" height="60" as="geometry" />
        </mxCell>
        <mxCell id="rUeERLIHMF86jaovQh1C-10" value="" style="edgeStyle=orthogonalEdgeStyle;rounded=0;orthogonalLoop=1;jettySize=auto;html=1;" edge="1" parent="1" source="rUeERLIHMF86jaovQh1C-7" target="rUeERLIHMF86jaovQh1C-9">
          <mxGeometry relative="1" as="geometry" />
        </mxCell>
        <mxCell id="rUeERLIHMF86jaovQh1C-14" value="" style="edgeStyle=orthogonalEdgeStyle;rounded=0;orthogonalLoop=1;jettySize=auto;html=1;" edge="1" parent="1" source="rUeERLIHMF86jaovQh1C-7" target="rUeERLIHMF86jaovQh1C-13">
          <mxGeometry relative="1" as="geometry" />
        </mxCell>
        <mxCell id="rUeERLIHMF86jaovQh1C-7" value="遍历表头找到需要自动填充的字段" style="whiteSpace=wrap;html=1;rounded=0;" vertex="1" parent="1">
          <mxGeometry x="500" y="350" width="120" height="60" as="geometry" />
        </mxCell>
        <mxCell id="rUeERLIHMF86jaovQh1C-12" value="" style="edgeStyle=orthogonalEdgeStyle;rounded=0;orthogonalLoop=1;jettySize=auto;html=1;" edge="1" parent="1" source="rUeERLIHMF86jaovQh1C-9" target="rUeERLIHMF86jaovQh1C-11">
          <mxGeometry relative="1" as="geometry" />
        </mxCell>
        <mxCell id="rUeERLIHMF86jaovQh1C-21" style="edgeStyle=orthogonalEdgeStyle;rounded=0;orthogonalLoop=1;jettySize=auto;html=1;entryX=0;entryY=0.5;entryDx=0;entryDy=0;" edge="1" parent="1" source="rUeERLIHMF86jaovQh1C-9" target="rUeERLIHMF86jaovQh1C-15">
          <mxGeometry relative="1" as="geometry" />
        </mxCell>
        <mxCell id="rUeERLIHMF86jaovQh1C-9" value="根据字段的取值规则获取时间跨度的两个值" style="whiteSpace=wrap;html=1;rounded=0;" vertex="1" parent="1">
          <mxGeometry x="707" y="350" width="120" height="60" as="geometry" />
        </mxCell>
        <mxCell id="rUeERLIHMF86jaovQh1C-11" value="从es中获取（找到项目下，上一次时间的数据行，并取得具体字段值）" style="ellipse;whiteSpace=wrap;html=1;rounded=0;" vertex="1" parent="1">
          <mxGeometry x="707" y="210" width="120" height="60" as="geometry" />
        </mxCell>
        <mxCell id="rUeERLIHMF86jaovQh1C-13" value="判断取值字段是否为空" style="ellipse;whiteSpace=wrap;html=1;rounded=0;" vertex="1" parent="1">
          <mxGeometry x="500" y="210" width="120" height="60" as="geometry" />
        </mxCell>
        <mxCell id="rUeERLIHMF86jaovQh1C-23" value="" style="edgeStyle=orthogonalEdgeStyle;rounded=0;orthogonalLoop=1;jettySize=auto;html=1;" edge="1" parent="1" source="rUeERLIHMF86jaovQh1C-15" target="rUeERLIHMF86jaovQh1C-22">
          <mxGeometry relative="1" as="geometry">
            <Array as="points">
              <mxPoint x="940" y="300" />
              <mxPoint x="940" y="300" />
            </Array>
          </mxGeometry>
        </mxCell>
        <mxCell id="rUeERLIHMF86jaovQh1C-26" value="" style="edgeStyle=orthogonalEdgeStyle;rounded=0;orthogonalLoop=1;jettySize=auto;html=1;" edge="1" parent="1" source="rUeERLIHMF86jaovQh1C-15" target="rUeERLIHMF86jaovQh1C-25">
          <mxGeometry relative="1" as="geometry" />
        </mxCell>
        <mxCell id="rUeERLIHMF86jaovQh1C-15" value="是否存在" style="rhombus;whiteSpace=wrap;html=1;rounded=0;" vertex="1" parent="1">
          <mxGeometry x="900" y="340" width="80" height="80" as="geometry" />
        </mxCell>
        <mxCell id="rUeERLIHMF86jaovQh1C-22" value="值为空" style="ellipse;whiteSpace=wrap;html=1;rounded=0;" vertex="1" parent="1">
          <mxGeometry x="880" y="190" width="120" height="60" as="geometry" />
        </mxCell>
        <mxCell id="rUeERLIHMF86jaovQh1C-24" value="不存在" style="text;html=1;strokeColor=none;fillColor=none;align=center;verticalAlign=middle;whiteSpace=wrap;rounded=0;" vertex="1" parent="1">
          <mxGeometry x="920" y="280" width="60" height="30" as="geometry" />
        </mxCell>
        <mxCell id="rUeERLIHMF86jaovQh1C-25" value="调用表头字段的计算方法，并回填" style="whiteSpace=wrap;html=1;rounded=0;" vertex="1" parent="1">
          <mxGeometry x="1040" y="350" width="120" height="60" as="geometry" />
        </mxCell>
        <mxCell id="rUeERLIHMF86jaovQh1C-27" value="" style="shape=curlyBracket;whiteSpace=wrap;html=1;rounded=1;flipH=1;direction=north;" vertex="1" parent="1">
          <mxGeometry x="40" y="450" width="120" height="20" as="geometry" />
        </mxCell>
      </root>
    </mxGraphModel>
  </diagram>
</mxfile>
